<?xml version="1.0" standalone="no"?>
<!DOCTYPE svg PUBLIC "-//W3C//DTD SVG 20010904//EN"
 "http://www.w3.org/TR/2001/REC-SVG-20010904/DTD/svg10.dtd">
<svg version="1.0" xmlns="http://www.w3.org/2000/svg"
 width="650.000000pt" height="200.000000pt" viewBox="0 0 650.000000 200.000000"
 preserveAspectRatio="xMidYMid meet">
<metadata>
Created by potrace 1.16, written by Peter Selinger 2001-2019
</metadata>
<g transform="translate(0.000000,200.000000) scale(0.100000,-0.100000)"
fill="#000000" stroke="none">
<path d="M1085 1773 c-83 -21 -164 -50 -244 -89 -80 -39 -107 -60 -185 -137
-100 -101 -156 -192 -195 -321 -30 -99 -30 -343 0 -442 39 -129 95 -220 195
-321 78 -77 105 -98 185 -137 176 -85 205 -91 444 -91 239 0 268 6 444 91 80
39 107 59 185 137 52 53 103 115 120 147 16 30 30 56 30 57 1 1 21 -4 44 -13
37 -12 246 -14 1550 -12 1421 3 1509 4 1535 21 61 40 62 46 62 337 0 292 -3
313 -58 346 -31 19 -68 19 -1539 22 -1304 2 -1513 0 -1550 -12 -23 -9 -43 -14
-44 -13 0 1 -14 27 -30 57 -17 32 -68 94 -120 147 -78 78 -105 98 -185 137
-171 83 -198 89 -424 92 -110 1 -209 0 -220 -3z m460 -68 c263 -87 446 -272
515 -520 19 -68 22 -97 18 -195 -5 -107 -20 -170 -40 -170 -4 0 -8 -9 -8 -20
0 -28 -66 -164 -90 -185 -11 -10 -20 -23 -20 -29 0 -13 -81 -92 -130 -126 -19
-13 -41 -30 -48 -37 -17 -17 -126 -71 -187 -93 -68 -25 -209 -50 -282 -50
-112 0 -316 52 -363 92 -10 9 -20 14 -23 12 -2 -2 -12 5 -22 16 -20 22 -14 26
16 10 14 -8 25 -6 44 6 23 15 27 15 43 1 22 -19 72 -19 95 1 9 8 17 10 17 4 0
-5 9 -8 20 -5 11 3 38 -2 60 -11 38 -15 126 -16 150 -1 5 3 10 1 10 -4 0 -14
47 -14 56 0 3 6 14 9 24 6 11 -3 27 1 37 8 19 13 122 41 136 37 5 -1 20 7 34
18 21 16 29 18 40 8 12 -10 18 -9 29 7 8 10 14 22 14 26 0 13 47 59 60 59 6 0
25 14 42 32 24 26 30 41 31 83 2 39 5 51 15 47 7 -2 24 1 38 8 19 11 27 11 36
2 18 -18 26 -15 30 11 2 15 9 21 23 19 18 -2 18 -2 3 8 -10 6 -18 20 -18 32 0
17 5 20 36 16 35 -4 36 -4 31 26 -3 17 -14 62 -26 101 -16 56 -28 78 -63 110
-23 22 -42 41 -40 43 7 7 1 122 -7 122 -15 0 -39 -63 -46 -124 -6 -43 -14 -66
-32 -84 l-24 -24 -17 31 c-14 25 -16 53 -14 143 l3 111 58 -6 57 -5 -28 30
c-15 17 -28 36 -28 43 0 7 -16 44 -35 83 -43 85 -128 168 -220 213 -147 72
-369 79 -519 15 -50 -21 -153 -95 -190 -136 -23 -27 -33 -31 -58 -26 -16 3
-27 2 -23 -3 3 -5 -1 -12 -7 -15 -10 -3 -8 -9 5 -19 20 -17 22 -27 5 -27 -9 0
-13 -17 -13 -50 0 -44 3 -52 25 -63 19 -10 24 -20 22 -42 -1 -17 -3 -70 -5
-120 -2 -84 -4 -90 -24 -93 -12 -2 -30 6 -41 19 l-21 21 -33 -20 c-47 -29 -87
-102 -88 -157 0 -12 -5 -26 -11 -32 -6 -6 -11 -47 -11 -92 0 -45 -4 -81 -9
-81 -33 0 -84 223 -75 325 28 318 238 567 560 665 85 26 111 28 276 25 125 -3
156 -7 225 -30z m-393 -415 c14 0 40 -11 56 -25 32 -27 61 -31 95 -14 31 17
131 13 172 -7 23 -11 41 -29 50 -52 16 -36 20 -75 7 -57 -4 6 -27 17 -52 24
-25 7 -54 21 -65 31 -24 22 -111 25 -119 4 -4 -10 -21 -7 -74 12 -55 20 -75
22 -96 14 -15 -5 -41 -10 -57 -10 -16 0 -32 -6 -35 -14 -4 -12 -10 -10 -26 6
-19 19 -20 24 -7 47 16 28 72 53 104 46 11 -3 32 -5 47 -5z m1168 -28 c0 -14
-23 -32 -41 -32 -38 0 -43 -25 -18 -112 14 -50 25 -119 27 -174 l3 -92 -36 -4
c-19 -2 -38 -2 -40 1 -7 6 -6 124 2 284 l6 137 49 0 c26 0 48 -4 48 -8z m271
-11 c-6 -10 -26 -22 -45 -25 -39 -8 -44 -18 -51 -128 -3 -40 -13 -112 -21
-160 -15 -81 -18 -88 -39 -88 -13 0 -30 -3 -38 -6 -8 -3 -17 2 -21 13 -11 27
-47 202 -53 258 -5 45 -4 48 10 36 9 -7 22 -28 29 -46 6 -19 15 -32 20 -29 4
3 8 -3 8 -13 1 -10 7 -29 14 -43 l14 -25 10 25 c5 14 17 52 27 85 10 33 24 74
31 92 8 17 14 40 14 52 0 19 6 21 50 21 47 0 50 -2 41 -19z m896 1 c-10 -10
-17 -34 -17 -53 1 -49 23 -127 42 -145 14 -15 19 -11 57 39 46 60 58 68 90 60
20 -5 19 -8 -16 -40 -21 -19 -31 -31 -23 -27 11 5 10 2 -3 -13 -17 -19 -16
-23 38 -114 30 -52 55 -97 55 -101 0 -5 -18 -8 -40 -8 -37 0 -41 3 -64 48 -13
26 -32 56 -40 67 -16 20 -16 20 -31 1 -8 -11 -15 -40 -15 -67 0 -46 0 -47 -35
-51 -20 -2 -38 -2 -40 1 -7 6 -6 210 2 324 6 95 6 97 31 97 24 0 24 -1 9 -18z
m881 12 c50 -14 17 -23 -62 -17 -138 10 -170 -7 -152 -80 18 -70 23 -73 118
-67 82 5 83 5 98 37 8 18 20 31 25 29 16 -4 15 -49 -2 -67 -12 -15 -10 -20 26
-48 45 -36 58 -75 41 -123 -20 -61 -49 -72 -198 -78 -74 -3 -136 -3 -138 -1
-6 7 -5 228 2 329 l7 92 106 0 c58 0 116 -3 129 -6z m400 -46 c-9 -14 -12 -33
-8 -48 5 -22 11 -24 43 -22 22 2 37 -1 37 -8 0 -16 -30 -24 -42 -12 -15 15
-38 4 -38 -18 0 -10 6 -23 14 -29 7 -6 16 -42 19 -87 8 -89 10 -94 43 -94 21
0 25 -4 22 -22 -3 -20 -10 -23 -50 -26 -37 -2 -51 1 -68 18 -19 19 -21 32 -20
123 2 134 2 130 -14 124 -26 -10 -26 30 0 42 16 7 24 19 24 35 0 14 8 30 18
35 28 17 35 13 20 -11z m-2189 -79 c6 -18 11 -40 11 -50 0 -9 5 -19 12 -21 8
-3 14 -39 16 -111 l4 -107 -35 0 c-23 0 -37 6 -41 16 -13 35 -1 304 14 304 5
0 13 -14 19 -31z m312 9 c49 -17 97 -74 105 -125 17 -111 -68 -188 -187 -169
-54 9 -77 24 -100 68 -46 89 -6 194 86 226 40 14 56 14 96 0z m253 -13 c-8
-21 16 -28 35 -11 49 44 124 37 154 -13 20 -33 22 -45 6 -35 -6 3 -4 -8 5 -24
11 -21 16 -58 16 -115 l0 -85 -35 -4 c-20 -2 -38 -2 -40 1 -3 2 -5 59 -5 126
0 81 -4 125 -12 133 -18 18 -61 15 -84 -6 -10 -10 -27 -16 -36 -14 -10 2 -18
-2 -18 -8 0 -6 4 -9 9 -6 12 8 21 -54 21 -145 l0 -77 -35 -4 c-20 -2 -38 -2
-40 1 -7 6 -6 296 0 303 11 11 63 -4 59 -17z m659 16 c4 0 7 -11 7 -24 0 -12
6 -31 14 -42 7 -11 24 -48 36 -82 12 -35 26 -63 31 -63 4 0 21 42 39 94 38
114 49 131 79 121 20 -6 21 -9 8 -23 -18 -22 -29 -52 -18 -52 15 0 -68 -257
-100 -309 -17 -27 -52 -41 -99 -41 -36 0 -40 3 -40 25 0 20 5 25 24 25 28 0
70 46 63 70 -3 8 -24 67 -46 130 -55 153 -60 168 -55 173 4 4 30 3 57 -2z
m1296 -14 c13 -7 26 -18 29 -24 5 -16 -40 -17 -55 -2 -20 20 -92 14 -116 -9
l-21 -21 23 -20 c12 -11 54 -28 93 -38 117 -30 145 -79 82 -143 -22 -23 -32
-25 -107 -25 -86 0 -137 18 -137 49 0 22 66 30 92 11 27 -18 67 -19 91 -1 28
21 10 43 -46 57 -64 15 -113 35 -122 50 -14 22 -9 79 8 97 41 40 125 49 186
19z m-479 4 c0 -6 -4 -13 -10 -16 -14 -8 -13 -48 1 -62 7 -7 14 -56 17 -111
l5 -99 -34 -5 c-19 -3 -37 -4 -41 -1 -5 2 -8 71 -8 154 l0 149 35 0 c19 0 35
-4 35 -9z m-3408 -98 c10 -9 18 -23 18 -32 0 -11 4 -9 16 7 21 30 78 27 104
-5 10 -13 23 -23 29 -23 6 0 11 -4 11 -8 0 -5 16 -13 37 -18 22 -6 47 -22 64
-44 27 -34 27 -37 15 -83 -7 -27 -18 -52 -25 -56 -6 -4 -20 -42 -30 -83 -10
-44 -31 -96 -49 -124 -18 -26 -32 -51 -32 -55 0 -4 -16 -13 -35 -20 -19 -7
-38 -22 -41 -33 -11 -36 -36 -56 -68 -56 -33 0 -51 18 -73 75 -6 17 -12 25
-12 18 -1 -19 -43 -2 -71 29 -28 31 -70 139 -70 182 0 14 -9 59 -21 99 -32
110 -33 116 -16 135 9 9 33 26 54 37 21 11 40 22 43 25 7 8 81 38 105 43 11 3
22 5 24 6 3 0 13 -6 23 -16z"/>
<path d="M4246 1032 l-58 -3 6 -31 c3 -17 6 -41 6 -55 0 -23 1 -24 82 -21 78
3 83 5 97 30 14 25 14 29 -8 51 -26 29 -45 33 -125 29z"/>
<path d="M2804 1111 c-33 -18 -39 -30 -38 -86 0 -65 12 -93 45 -111 64 -32
110 8 111 96 0 88 -55 136 -118 101z"/>
</g>
</svg>
